<svg width="309" height="69" viewBox="0 0 309 69" fill="none" xmlns="http://www.w3.org/2000/svg">
<path d="M24.9139 42.3113C24.9139 41.5819 24.8016 40.9273 24.5772 40.3475C24.3715 39.749 23.9787 39.2066 23.3989 38.7203C22.8191 38.2153 22.0056 37.7197 20.9582 37.2334C19.9108 36.7472 18.5549 36.2422 16.8903 35.7185C15.0387 35.12 13.2806 34.4467 11.6161 33.6986C9.97023 32.9505 8.5114 32.0808 7.2396 31.0895C5.9865 30.0796 4.99525 28.9106 4.26584 27.5827C3.55513 26.2548 3.19977 24.7118 3.19977 22.9538C3.19977 21.2518 3.57383 19.7088 4.32195 18.3248C5.07006 16.9221 6.11743 15.7251 7.46403 14.7338C8.81064 13.7239 10.4004 12.9477 12.2333 12.4053C14.0849 11.8629 16.1141 11.5917 18.3211 11.5917C21.3322 11.5917 23.96 12.1341 26.2044 13.2189C28.4487 14.3037 30.1881 15.7905 31.4225 17.6795C32.6756 19.5685 33.3021 21.7287 33.3021 24.1601H24.9419C24.9419 22.9631 24.6894 21.9158 24.1844 21.018C23.6982 20.1016 22.95 19.3815 21.9401 18.8578C20.9488 18.3341 19.6957 18.0723 18.1808 18.0723C16.722 18.0723 15.5063 18.2967 14.5337 18.7456C13.5612 19.1758 12.8318 19.7649 12.3455 20.513C11.8592 21.2424 11.6161 22.0654 11.6161 22.9818C11.6161 23.6738 11.7844 24.3004 12.1211 24.8615C12.4764 25.4226 13.0001 25.9462 13.6921 26.4325C14.3841 26.9188 15.2351 27.377 16.2451 27.8072C17.255 28.2373 18.4239 28.6582 19.7519 29.0696C21.9775 29.7429 23.932 30.5004 25.6152 31.342C27.3172 32.1837 28.7386 33.1282 29.8795 34.1755C31.0204 35.2229 31.8807 36.4105 32.4605 37.7384C33.0403 39.0663 33.3302 40.5719 33.3302 42.2552C33.3302 44.032 32.9842 45.6217 32.2922 47.0244C31.6001 48.4271 30.5995 49.6148 29.2903 50.5873C27.9811 51.5599 26.4194 52.2986 24.6053 52.8036C22.7911 53.3086 20.7618 53.5611 18.5175 53.5611C16.4975 53.5611 14.5057 53.2992 12.5419 52.7756C10.5781 52.2332 8.79194 51.4196 7.18349 50.3348C5.59374 49.2501 4.32195 47.866 3.3681 46.1828C2.41425 44.4995 1.93732 42.5077 1.93732 40.2072H10.3817C10.3817 41.479 10.5781 42.5544 10.9708 43.4335C11.3636 44.3125 11.9153 45.0232 12.626 45.5656C13.3555 46.108 14.2158 46.5007 15.207 46.7439C16.217 46.987 17.3205 47.1086 18.5175 47.1086C19.9763 47.1086 21.1733 46.9028 22.1084 46.4914C23.0623 46.0799 23.7636 45.5095 24.2125 44.7801C24.6801 44.0507 24.9139 43.2277 24.9139 42.3113ZM56.5031 45.7339V22.6452H64.5827V53H56.98L56.5031 45.7339ZM57.4008 39.5058L59.7854 39.4497C59.7854 41.4697 59.5517 43.3493 59.0841 45.0887C58.6165 46.8093 57.9151 48.3056 56.98 49.5774C56.0449 50.8305 54.8666 51.8124 53.4452 52.5231C52.0237 53.2151 50.3498 53.5611 48.4234 53.5611C46.9459 53.5611 45.5806 53.3554 44.3275 52.9439C43.0931 52.5137 42.027 51.8498 41.1293 50.952C40.2502 50.0356 39.5582 48.8667 39.0533 47.4452C38.567 46.0051 38.3238 44.2751 38.3238 42.2552V22.6452H46.4035V42.3113C46.4035 43.209 46.5064 43.9665 46.7121 44.5837C46.9365 45.2009 47.2451 45.7059 47.6379 46.0986C48.0307 46.4914 48.4889 46.7719 49.0126 46.9403C49.5549 47.1086 50.1534 47.1927 50.808 47.1927C52.4726 47.1927 53.7818 46.8561 54.7357 46.1828C55.7082 45.5095 56.3909 44.593 56.7836 43.4335C57.1951 42.2552 57.4008 40.946 57.4008 39.5058ZM71.2036 22.6452H79.3113V54.8235C79.3113 57.0679 78.8998 58.9662 78.0769 60.5186C77.254 62.0709 76.0663 63.2492 74.514 64.0534C72.9616 64.8576 71.082 65.2598 68.8751 65.2598C68.183 65.2598 67.5097 65.2224 66.8551 65.1475C66.1818 65.0727 65.4898 64.9512 64.7791 64.7828L64.8072 58.5828C65.256 58.6576 65.6956 58.7137 66.1257 58.7511C66.5372 58.8073 66.958 58.8353 67.3882 58.8353C68.2298 58.8353 68.9312 58.695 69.4923 58.4145C70.0533 58.134 70.4742 57.6944 70.7547 57.0959C71.0539 56.5161 71.2036 55.7587 71.2036 54.8235V22.6452ZM70.5583 14.7338C70.5583 13.5556 70.9698 12.583 71.7927 11.8162C72.6343 11.0494 73.7378 10.666 75.1031 10.666C76.4871 10.666 77.5906 11.0494 78.4135 11.8162C79.2365 12.583 79.6479 13.5556 79.6479 14.7338C79.6479 15.9121 79.2365 16.8847 78.4135 17.6515C77.5906 18.4183 76.4871 18.8017 75.1031 18.8017C73.7378 18.8017 72.6343 18.4183 71.7927 17.6515C70.9698 16.8847 70.5583 15.9121 70.5583 14.7338ZM99.7068 53.5611C97.3502 53.5611 95.2368 53.187 93.3665 52.4389C91.4962 51.6721 89.9065 50.6154 88.5973 49.2688C87.3068 47.9222 86.3155 46.3605 85.6235 44.5837C84.9315 42.7882 84.5855 40.8805 84.5855 38.8606V37.7384C84.5855 35.438 84.9128 33.3339 85.5674 31.4262C86.222 29.5185 87.1572 27.8633 88.3728 26.4606C89.6072 25.0578 91.1035 23.9824 92.8615 23.2343C94.6196 22.4675 96.6021 22.0841 98.8091 22.0841C100.96 22.0841 102.868 22.4394 104.532 23.1501C106.197 23.8609 107.59 24.8708 108.712 26.18C109.853 27.4892 110.713 29.0603 111.293 30.8932C111.873 32.7073 112.163 34.7273 112.163 36.9529V40.3194H88.0362V34.933H104.224V34.3158C104.224 33.1936 104.018 32.193 103.606 31.314C103.214 30.4162 102.615 29.7055 101.811 29.1818C101.007 28.6582 99.978 28.3963 98.7249 28.3963C97.6588 28.3963 96.7424 28.6301 95.9756 29.0977C95.2088 29.5652 94.5822 30.2198 94.0959 31.0615C93.6284 31.9031 93.273 32.8944 93.0299 34.0352C92.8054 35.1574 92.6932 36.3918 92.6932 37.7384V38.8606C92.6932 40.0763 92.8615 41.1985 93.1982 42.2271C93.5536 43.2558 94.0492 44.1442 94.6851 44.8923C95.3397 45.6404 96.1252 46.2202 97.0416 46.6317C97.9768 47.0431 99.0335 47.2489 100.212 47.2489C101.671 47.2489 103.027 46.9683 104.28 46.4072C105.551 45.8274 106.646 44.9577 107.562 43.7982L111.49 48.0624C110.854 48.9789 109.984 49.8579 108.881 50.6995C107.796 51.5412 106.487 52.2332 104.953 52.7756C103.419 53.2992 101.671 53.5611 99.7068 53.5611ZM125.292 22.6452V53H117.185V22.6452H125.292ZM116.68 14.7338C116.68 13.5556 117.091 12.583 117.914 11.8162C118.737 11.0494 119.84 10.666 121.225 10.666C122.59 10.666 123.684 11.0494 124.507 11.8162C125.349 12.583 125.769 13.5556 125.769 14.7338C125.769 15.9121 125.349 16.8847 124.507 17.6515C123.684 18.4183 122.59 18.8017 121.225 18.8017C119.84 18.8017 118.737 18.4183 117.914 17.6515C117.091 16.8847 116.68 15.9121 116.68 14.7338ZM146.838 22.6452V28.3683H129.164V22.6452H146.838ZM133.54 15.1547H141.62V43.8543C141.62 44.7333 141.732 45.4066 141.957 45.8742C142.2 46.3418 142.555 46.6691 143.023 46.8561C143.49 47.0244 144.079 47.1086 144.79 47.1086C145.295 47.1086 145.744 47.0899 146.137 47.0525C146.548 46.9964 146.894 46.9403 147.175 46.8841L147.203 52.8317C146.511 53.0561 145.763 53.2338 144.959 53.3647C144.154 53.4956 143.266 53.5611 142.293 53.5611C140.517 53.5611 138.964 53.2712 137.636 52.6914C136.327 52.0929 135.317 51.1391 134.606 49.8299C133.896 48.5207 133.54 46.8 133.54 44.6679V15.1547ZM149.419 38.1312V37.542C149.419 35.3164 149.737 33.2684 150.373 31.3981C151.009 29.5091 151.935 27.8726 153.15 26.4886C154.366 25.1046 155.862 24.0292 157.639 23.2624C159.416 22.4768 161.454 22.0841 163.755 22.0841C166.055 22.0841 168.103 22.4768 169.899 23.2624C171.694 24.0292 173.2 25.1046 174.416 26.4886C175.65 27.8726 176.585 29.5091 177.221 31.3981C177.857 33.2684 178.175 35.3164 178.175 37.542V38.1312C178.175 40.3381 177.857 42.3861 177.221 44.2751C176.585 46.1454 175.65 47.7819 174.416 49.1846C173.2 50.5686 171.704 51.644 169.927 52.4109C168.15 53.1777 166.112 53.5611 163.811 53.5611C161.511 53.5611 159.463 53.1777 157.667 52.4109C155.89 51.644 154.385 50.5686 153.15 49.1846C151.935 47.7819 151.009 46.1454 150.373 44.2751C149.737 42.3861 149.419 40.3381 149.419 38.1312ZM157.499 37.542V38.1312C157.499 39.403 157.611 40.5906 157.835 41.6941C158.06 42.7976 158.415 43.7701 158.902 44.6117C159.407 45.4347 160.061 46.0799 160.865 46.5475C161.67 47.0151 162.651 47.2489 163.811 47.2489C164.933 47.2489 165.896 47.0151 166.701 46.5475C167.505 46.0799 168.15 45.4347 168.636 44.6117C169.123 43.7701 169.478 42.7976 169.702 41.6941C169.946 40.5906 170.067 39.403 170.067 38.1312V37.542C170.067 36.3076 169.946 35.1481 169.702 34.0633C169.478 32.9598 169.113 31.9873 168.608 31.1456C168.122 30.2853 167.477 29.612 166.673 29.1257C165.868 28.6395 164.896 28.3963 163.755 28.3963C162.614 28.3963 161.642 28.6395 160.837 29.1257C160.052 29.612 159.407 30.2853 158.902 31.1456C158.415 31.9873 158.06 32.9598 157.835 34.0633C157.611 35.1481 157.499 36.3076 157.499 37.542Z" fill="white"/>
<g filter="url(#filter0_d_1_310)">
<path d="M183.793 39.0826H173.385V32.5179H183.793C185.401 32.5179 186.711 32.256 187.721 31.7324C188.731 31.19 189.469 30.4419 189.937 29.488C190.404 28.5342 190.638 27.4587 190.638 26.2618C190.638 25.0461 190.404 23.9145 189.937 22.8672C189.469 21.8198 188.731 20.9782 187.721 20.3423C186.711 19.7064 185.401 19.3884 183.793 19.3884H176.302V53.6428H167.886V12.7957H183.793C186.991 12.7957 189.731 13.3754 192.013 14.535C194.313 15.6759 196.071 17.2563 197.287 19.2762C198.503 21.2961 199.111 23.6059 199.111 26.2056C199.111 28.8428 198.503 31.1245 197.287 33.0509C196.071 34.9773 194.313 36.4642 192.013 37.5116C189.731 38.5589 186.991 39.0826 183.793 39.0826ZM212.941 23.288V53.6428H204.834V23.288H212.941ZM204.329 15.3767C204.329 14.1984 204.74 13.2258 205.563 12.459C206.386 11.6922 207.49 11.3088 208.874 11.3088C210.239 11.3088 211.333 11.6922 212.156 12.459C212.998 13.2258 213.418 14.1984 213.418 15.3767C213.418 16.5549 212.998 17.5275 212.156 18.2943C211.333 19.0611 210.239 19.4445 208.874 19.4445C207.49 19.4445 206.386 19.0611 205.563 18.2943C204.74 17.5275 204.329 16.5549 204.329 15.3767ZM243.773 47.3306V53.6428H220.713V47.3306H243.773ZM243.324 27.945L223.967 53.6428H218.552V48.8455L237.826 23.288H243.324V27.945ZM240.463 23.288V29.6283H219.001V23.288H240.463ZM273.006 47.3306V53.6428H249.945V47.3306H273.006ZM272.557 27.945L253.2 53.6428H247.785V48.8455L267.058 23.288H272.557V27.945ZM269.695 23.288V29.6283H248.234V23.288H269.695ZM294.468 46.7976V33.2753C294.468 32.3028 294.309 31.4705 293.991 30.7785C293.673 30.0678 293.177 29.5161 292.504 29.1233C291.849 28.7305 290.998 28.5342 289.951 28.5342C289.053 28.5342 288.277 28.6931 287.622 29.0111C286.968 29.3103 286.463 29.7498 286.107 30.3296C285.752 30.8907 285.574 31.5547 285.574 32.3215H277.495C277.495 31.031 277.794 29.806 278.392 28.6464C278.991 27.4868 279.861 26.4675 281.001 25.5884C282.142 24.6907 283.498 23.9893 285.069 23.4844C286.659 22.9794 288.436 22.7269 290.4 22.7269C292.756 22.7269 294.851 23.1197 296.684 23.9052C298.517 24.6907 299.957 25.869 301.004 27.44C302.07 29.0111 302.603 30.9749 302.603 33.3315V46.3206C302.603 47.9852 302.706 49.3505 302.912 50.4166C303.118 51.4639 303.417 52.3804 303.81 53.1659V53.6428H295.646C295.253 52.8199 294.954 51.7912 294.748 50.5568C294.561 49.3037 294.468 48.0507 294.468 46.7976ZM295.534 35.155L295.59 39.7279H291.073C290.007 39.7279 289.081 39.8494 288.296 40.0926C287.51 40.3357 286.865 40.6817 286.36 41.1306C285.855 41.5607 285.481 42.0657 285.238 42.6455C285.013 43.2253 284.901 43.8612 284.901 44.5532C284.901 45.2452 285.06 45.8718 285.378 46.4328C285.696 46.9752 286.154 47.4054 286.753 47.7233C287.351 48.0226 288.052 48.1722 288.857 48.1722C290.072 48.1722 291.129 47.9291 292.027 47.4428C292.925 46.9565 293.617 46.358 294.103 45.6473C294.608 44.9366 294.87 44.2633 294.888 43.6274L297.02 47.05C296.721 47.8169 296.31 48.6117 295.786 49.4347C295.281 50.2576 294.636 51.0338 293.85 51.7632C293.065 52.4739 292.12 53.063 291.017 53.5306C289.913 53.9795 288.604 54.2039 287.089 54.2039C285.163 54.2039 283.414 53.8205 281.843 53.0537C280.291 52.2682 279.056 51.1927 278.14 49.8274C277.242 48.4434 276.793 46.8724 276.793 45.1143C276.793 43.5245 277.092 42.1125 277.691 40.8781C278.289 39.6437 279.169 38.6057 280.328 37.764C281.506 36.9037 282.975 36.2585 284.733 35.8283C286.491 35.3794 288.529 35.155 290.848 35.155H295.534Z" fill="#FF3F4B"/>
</g>
<defs>
<filter id="filter0_d_1_310" x="162.101" y="4.88027" width="146.209" height="53.1807" filterUnits="userSpaceOnUse" color-interpolation-filters="sRGB">
<feFlood flood-opacity="0" result="BackgroundImageFix"/>
<feColorMatrix in="SourceAlpha" type="matrix" values="0 0 0 0 0 0 0 0 0 0 0 0 0 0 0 0 0 0 127 0" result="hardAlpha"/>
<feOffset dx="-0.642857" dy="-1.28571"/>
<feGaussianBlur stdDeviation="2.57143"/>
<feComposite in2="hardAlpha" operator="out"/>
<feColorMatrix type="matrix" values="0 0 0 0 0 0 0 0 0 0 0 0 0 0 0 0 0 0 0.5 0"/>
<feBlend mode="normal" in2="BackgroundImageFix" result="effect1_dropShadow_1_310"/>
<feBlend mode="normal" in="SourceGraphic" in2="effect1_dropShadow_1_310" result="shape"/>
</filter>
</defs>
</svg>
